<svg width="174" height="31" viewBox="0 0 174 31" fill="none" xmlns="http://www.w3.org/2000/svg">
<path fill-rule="evenodd" clip-rule="evenodd" d="M114.711 9.77095C114.411 9.71866 114.063 9.68903 113.667 9.68903C112.819 9.68903 112.158 9.77095 111.396 10.2067C110.705 10.6023 110.16 11.0433 109.711 11.859L109.593 10.5222C109.583 10.3856 109.522 10.2578 109.422 10.1647C109.322 10.0715 109.19 10.0198 109.054 10.0202H105.26C105.189 10.02 105.119 10.0338 105.053 10.061C104.987 10.0881 104.928 10.1281 104.877 10.1784C104.827 10.2288 104.787 10.2887 104.76 10.3545C104.733 10.4204 104.719 10.491 104.719 10.5622V27.3677C104.719 27.4389 104.733 27.5095 104.76 27.5754C104.787 27.6413 104.827 27.7011 104.877 27.7515C104.928 27.8019 104.987 27.8418 105.053 27.869C105.119 27.8961 105.189 27.91 105.26 27.9097H109.327C109.398 27.91 109.468 27.8961 109.534 27.869C109.6 27.8418 109.66 27.8019 109.71 27.7515C109.76 27.7011 109.8 27.6413 109.827 27.5754C109.854 27.5095 109.868 27.4389 109.868 27.3677V17.2412C109.868 16.3959 110.449 15.3379 111.114 14.8534C111.719 14.4107 112.398 14.1039 113.317 14.0237C113.573 14.0011 113.973 14.0185 114.514 14.069C114.827 14.0987 115.102 13.8529 115.106 13.5357L115.158 10.3165C115.161 10.0463 114.966 9.81975 114.705 9.77269L114.711 9.77095ZM127.004 23.9759L126.216 24.0108C125.554 24.0108 125.088 23.8836 124.813 23.6308C124.538 23.3781 124.401 22.8988 124.401 22.1929V14.0725H126.847C126.918 14.0728 126.989 14.0589 127.055 14.0317C127.12 14.0046 127.18 13.9647 127.23 13.9143C127.281 13.8639 127.321 13.804 127.348 13.7382C127.375 13.6723 127.389 13.6017 127.388 13.5305V10.2363C127.389 10.1651 127.375 10.0945 127.348 10.0286C127.321 9.96274 127.281 9.90289 127.23 9.85251C127.18 9.80213 127.12 9.76221 127.055 9.73505C126.989 9.70789 126.918 9.69403 126.847 9.69426H124.401V6.13866C124.401 6.06741 124.387 5.99682 124.36 5.93095C124.333 5.86508 124.293 5.80523 124.243 5.75485C124.193 5.70447 124.133 5.66455 124.067 5.6374C124.001 5.61024 123.931 5.59637 123.86 5.5966H119.793C119.722 5.59637 119.652 5.61024 119.586 5.6374C119.52 5.66455 119.46 5.70447 119.41 5.75485C119.36 5.80523 119.32 5.86508 119.293 5.93095C119.266 5.99682 119.252 6.06741 119.252 6.13866V9.69426H117.348C117.277 9.69403 117.207 9.70789 117.141 9.73505C117.075 9.76221 117.016 9.80213 116.965 9.85251C116.915 9.90289 116.875 9.96274 116.848 10.0286C116.821 10.0945 116.807 10.1651 116.807 10.2363V13.5305C116.807 13.6017 116.821 13.6723 116.848 13.7382C116.875 13.804 116.915 13.8639 116.965 13.9143C117.016 13.9647 117.075 14.0046 117.141 14.0317C117.207 14.0589 117.277 14.0728 117.348 14.0725H119.25V22.8186C119.25 24.6923 119.71 26.0657 120.628 26.9354C121.547 27.8052 122.873 28.2427 124.596 28.2427C125.481 28.2508 126.364 28.1352 127.218 27.8993C127.444 27.8348 127.601 27.6169 127.601 27.3764V24.5128C127.601 24.1903 127.322 23.9446 127.002 23.9724L127.004 23.9759ZM95.4622 23.9184C94.9281 24.2217 94.3103 24.3716 93.6056 24.3716C92.9792 24.3716 92.4746 24.2043 92.0953 23.8661C91.7159 23.528 91.5263 23.0923 91.5263 22.5519C91.5263 21.7798 91.7908 21.1436 92.318 20.6417C92.8452 20.1397 93.6578 19.8922 94.761 19.8922H96.6107V22.8204C96.3792 23.2509 95.9964 23.6169 95.4622 23.9184ZM98.2689 10.4106C97.1727 9.9313 95.9164 9.69077 94.4965 9.69077C92.9653 9.69077 91.615 9.94524 90.4422 10.4507C89.2694 10.9561 88.3681 11.6708 87.7347 12.5335C87.2314 13.2226 86.9159 14.0312 86.8195 14.8795C86.7847 15.1985 87.0405 15.4773 87.3589 15.4773H91.4341C91.6985 15.4773 91.9091 15.2786 91.9561 15.0172C92.0154 14.6151 92.2159 14.2474 92.5216 13.9802C92.9218 13.6316 93.4873 13.4573 94.2129 13.4573C95.0272 13.4573 95.6293 13.6804 96.0225 14.1266C96.4158 14.5728 96.6089 15.1985 96.6089 16.0037V16.9798H94.6949C91.9456 16.9798 89.8715 17.4904 88.4795 18.5101C87.0874 19.5297 86.3914 20.9816 86.3914 22.8674C86.3914 23.8923 86.6611 24.816 87.2005 25.6387C87.7399 26.4614 88.4708 27.0993 89.3965 27.5559C90.3474 28.0188 91.393 28.2534 92.4502 28.2409C94.3208 28.2409 95.7963 27.6012 96.8734 26.3237V27.3694C96.8732 27.4407 96.887 27.5113 96.9141 27.5771C96.9413 27.643 96.9811 27.7029 97.0314 27.7532C97.0817 27.8036 97.1414 27.8435 97.2072 27.8707C97.273 27.8979 97.3434 27.9117 97.4146 27.9115H101.25C101.321 27.9117 101.391 27.8979 101.457 27.8707C101.523 27.8435 101.582 27.8036 101.633 27.7532C101.683 27.7029 101.723 27.643 101.75 27.5771C101.777 27.5113 101.791 27.4407 101.791 27.3694L101.792 16.0403C101.792 14.646 101.479 13.5008 100.86 12.5509C100.24 11.601 99.3808 10.8899 98.2846 10.4106H98.2689ZM167.209 13.5235C166.593 14.0708 165.695 14.3427 164.519 14.3427H160.691V8.14304H164.519C165.708 8.14304 166.607 8.41668 167.216 8.96222C167.825 9.50776 168.131 10.2747 168.131 11.2559C168.131 12.218 167.824 12.9727 167.209 13.5218V13.5235ZM173.943 27.1237L169.245 17.9087C170.637 17.2813 171.672 16.4272 172.398 15.3466C173.124 14.266 173.487 12.8542 173.487 11.1113C173.487 9.54611 173.127 8.21799 172.408 7.13388C171.69 6.04977 170.651 5.2271 169.304 4.6711C167.957 4.1151 166.358 3.83449 164.509 3.83449H155.855C155.784 3.83426 155.714 3.84812 155.648 3.87528C155.582 3.90244 155.523 3.94236 155.472 3.99274C155.422 4.04312 155.382 4.10297 155.355 4.16884C155.328 4.2347 155.314 4.30529 155.314 4.37654V27.3659C155.314 27.4372 155.328 27.5078 155.355 27.5737C155.382 27.6395 155.422 27.6994 155.472 27.7498C155.523 27.8001 155.582 27.8401 155.648 27.8672C155.714 27.8944 155.784 27.9082 155.855 27.908H160.136C160.207 27.9082 160.278 27.8944 160.343 27.8672C160.409 27.8401 160.469 27.8001 160.519 27.7498C160.569 27.6994 160.609 27.6395 160.636 27.5737C160.664 27.5078 160.677 27.4372 160.677 27.3659V18.7297H163.988L168.45 27.6117C168.495 27.7015 168.564 27.777 168.649 27.8297C168.735 27.8823 168.833 27.91 168.934 27.9097H173.458C173.863 27.9097 174.124 27.481 173.94 27.1202L173.943 27.1237ZM150.874 3.8066H146.604C146.304 3.8066 146.061 4.05061 146.061 4.3504V14.3409H136.941V4.3504C136.941 4.05061 136.698 3.8066 136.398 3.8066H132.113C131.813 3.8066 131.57 4.05061 131.57 4.3504V27.3659C131.57 27.6657 131.813 27.9097 132.113 27.9097H136.398C136.698 27.9097 136.941 27.6657 136.941 27.3659V18.6617H146.064V27.3659C146.064 27.6657 146.308 27.9097 146.607 27.9097H150.877C151.177 27.9097 151.42 27.6657 151.42 27.3659V4.3504C151.42 4.05061 151.177 3.8066 150.877 3.8066H150.874ZM13.4455 18.3427C13.5847 18.3915 13.7309 18.4159 13.8718 18.4159C14.406 18.4159 14.9072 18.0813 15.0933 17.5445C15.3282 16.8682 14.9715 16.1292 14.2981 15.8939C13.4987 15.6145 12.8238 15.0606 12.393 14.3304C11.9623 13.6002 11.8035 12.7408 11.9448 11.9046C12.0862 11.0683 12.5185 10.3092 13.1652 9.7617C13.8118 9.2142 14.6312 8.91369 15.4779 8.91342C16.2223 8.91327 16.9483 9.14527 17.5551 9.57723C18.1619 10.0092 18.6194 10.6197 18.864 11.3239C19.0989 12.0002 19.8384 12.3575 20.5101 12.1222C21.1817 11.8869 21.5419 11.1461 21.307 10.4734C20.8214 9.10095 19.8682 7.94404 18.615 7.20618C17.3619 6.46832 15.8891 6.19678 14.4558 6.43932C13.0224 6.68187 11.7204 7.42297 10.7788 8.53223C9.83719 9.64149 9.31627 11.0479 9.30771 12.5039C9.30842 13.7864 9.70698 15.037 10.4483 16.0827C11.1895 17.1284 12.2369 17.9176 13.4455 18.341V18.3427ZM78.1106 9.68903C76.9447 9.68903 75.9146 9.92433 75.0238 10.3914C74.1289 10.8634 73.368 11.5548 72.8122 12.401C72.3841 11.486 71.7716 10.8063 70.9799 10.3583C70.1882 9.91038 69.2399 9.68903 68.1402 9.68903C67.0509 9.68903 66.0765 9.89295 65.2169 10.2991C64.3631 10.7037 63.6167 11.3045 63.0384 12.0525L62.9131 10.5187C62.9025 10.3827 62.8411 10.2558 62.7411 10.1634C62.641 10.0709 62.5098 10.0198 62.3737 10.0202H58.5804C58.5093 10.02 58.4388 10.0338 58.373 10.061C58.3073 10.0881 58.2475 10.1281 58.1972 10.1784C58.1469 10.2288 58.1071 10.2887 58.08 10.3545C58.0528 10.4204 58.039 10.491 58.0392 10.5622V27.3677C58.039 27.4389 58.0528 27.5095 58.08 27.5754C58.1071 27.6413 58.1469 27.7011 58.1972 27.7515C58.2475 27.8019 58.3073 27.8418 58.373 27.869C58.4388 27.8961 58.5093 27.91 58.5804 27.9097H62.6469C62.718 27.91 62.7885 27.8961 62.8542 27.869C62.92 27.8418 62.9797 27.8019 63.03 27.7515C63.0803 27.7011 63.1202 27.6413 63.1473 27.5754C63.1744 27.5095 63.1882 27.4389 63.188 27.3677V16.178C63.4751 15.683 63.8423 15.2996 64.2947 15.0277C64.7471 14.7558 65.2743 14.6233 65.8781 14.6233C66.428 14.6233 66.8786 14.6982 67.2319 14.8464C67.5851 14.9945 67.8531 15.2734 68.041 15.683C68.2289 16.0926 68.3194 16.6643 68.3194 17.4015V27.3712C68.3192 27.4424 68.333 27.513 68.3601 27.5789C68.3872 27.6448 68.4271 27.7046 68.4774 27.755C68.5277 27.8054 68.5874 27.8453 68.6532 27.8724C68.7189 27.8996 68.7894 27.9135 68.8605 27.9132H72.927C72.9981 27.9135 73.0686 27.8996 73.1344 27.8724C73.2001 27.8453 73.2599 27.8054 73.3102 27.755C73.3605 27.7046 73.4003 27.6448 73.4274 27.5789C73.4545 27.513 73.4684 27.4424 73.4682 27.3712V16.3732C73.7326 15.8224 74.0893 15.3919 74.5418 15.0834C74.9942 14.7749 75.5371 14.6198 76.1774 14.6198C76.7272 14.6198 77.1762 14.6948 77.5224 14.8429C77.8687 14.9911 78.1367 15.2682 78.3229 15.6708C78.509 16.0734 78.6013 16.6381 78.6013 17.3649V27.3659C78.601 27.4372 78.6149 27.5078 78.642 27.5737C78.6691 27.6395 78.709 27.6994 78.7593 27.7498C78.8095 27.8001 78.8693 27.8401 78.9351 27.8672C79.0008 27.8944 79.0713 27.9082 79.1424 27.908H83.2263C83.2974 27.9082 83.3679 27.8944 83.4336 27.8672C83.4994 27.8401 83.5592 27.8001 83.6095 27.7498C83.6598 27.6994 83.6996 27.6395 83.7267 27.5737C83.7538 27.5078 83.7677 27.4372 83.7674 27.3659V16.5998C83.7674 14.1527 83.275 12.3888 82.2884 11.3082C81.3018 10.2276 79.908 9.68729 78.1036 9.68729L78.1106 9.68903ZM28.3455 21.0757C28.345 23.0209 27.5735 24.8863 26.2005 26.2619C24.8275 27.6375 22.9653 28.4108 21.0234 28.4117H9.88714C7.94489 28.4113 6.08231 27.6382 4.70893 26.2625C3.33554 24.8869 2.56378 23.0212 2.56332 21.0757V9.92084C2.56377 8.95605 2.75417 8.00083 3.1236 7.10983C3.49304 6.21883 4.03427 5.40956 4.71631 4.72833C5.39835 4.04709 6.20781 3.50727 7.09837 3.13975C7.98893 2.77224 8.94311 2.58425 9.90628 2.58654H21.0425C22.9842 2.58747 24.846 3.36048 26.219 4.73573C27.592 6.11098 28.3637 7.97595 28.3646 9.92084V21.0757H28.3455ZM28.027 2.9055C27.125 1.99988 26.056 1.27832 24.8793 0.780854C23.659 0.263246 22.3469 -0.00233519 21.0217 1.54687e-05H9.8854C8.56016 -0.00233519 7.24808 0.263246 6.02774 0.780854C4.85109 1.27832 3.78207 1.99988 2.88001 2.9055C1.97171 3.81532 1.25655 4.87502 0.757159 6.06023C0.248398 7.28368 -0.00903094 8.59727 0.000241883 9.92258V21.0774C-0.00210486 22.4049 0.263034 23.7191 0.779779 24.9415C1.27693 26.1203 1.99789 27.1911 2.90263 28.0945C3.80469 29.0001 4.87371 29.7217 6.05036 30.2191C7.2707 30.7368 8.58278 31.0023 9.90802 31H21.0443C22.3695 31.0023 23.6816 30.7368 24.9019 30.2191C26.0786 29.7217 27.1476 29.0001 28.0497 28.0945C28.958 27.1847 29.6731 26.125 30.1725 24.9398C30.6893 23.7174 30.9544 22.4031 30.9521 21.0757V9.92084C30.9544 8.59339 30.6893 7.27912 30.1725 6.05674C29.6731 4.87502 28.9597 3.81357 28.0497 2.90201L28.027 2.9055ZM17.4824 12.6555C16.8073 12.4202 16.0695 12.7775 15.8346 13.452C15.5997 14.1266 15.9564 14.8673 16.6298 15.1026C17.4293 15.382 18.1042 15.9359 18.5349 16.6661C18.9657 17.3963 19.1244 18.2557 18.9831 19.0919C18.8418 19.9282 18.4095 20.6873 17.7628 21.2348C17.1161 21.7823 16.2968 22.0828 15.45 22.0831C14.7056 22.0832 13.9796 21.8512 13.3728 21.4193C12.7661 20.9873 12.3086 20.3768 12.0639 19.6726C11.829 18.9963 11.0895 18.639 10.4179 18.8743C9.7462 19.1096 9.38601 19.8469 9.62092 20.5232C10.1065 21.8956 11.0597 23.0525 12.3129 23.7903C13.5661 24.5282 15.0389 24.7997 16.4722 24.5572C17.9055 24.3146 19.2075 23.5735 20.1491 22.4643C21.0907 21.355 21.6117 19.9487 21.6202 18.4926C21.6195 17.2101 21.221 15.9595 20.4797 14.9138C19.7384 13.8681 18.691 13.0789 17.4824 12.6555ZM50.5292 13.9505L47.0213 12.5562C44.9454 11.7422 43.4455 11.1531 43.4455 9.71169C43.4455 8.27028 44.6409 7.42146 46.6472 7.42146C48.335 7.42146 49.7827 7.89554 51.3801 8.99011C51.4928 9.06597 51.63 9.09645 51.7642 9.07545C51.8984 9.05444 52.0197 8.98351 52.104 8.87682L54.2564 6.16306C54.4391 5.93299 54.4026 5.60183 54.1816 5.40836C52.1683 3.65496 49.4034 2.62314 46.6472 2.62314C41.5524 2.62314 37.7104 5.81621 37.7104 10.0516C37.7104 14.334 41.1957 16.1867 42.6938 16.7793L46.341 18.3166C48.2898 19.1323 49.5774 19.6726 49.5774 21.1576C49.5774 22.0517 49.125 23.5506 46.1078 23.5506C44.3434 23.5506 42.2171 22.7315 40.4231 21.3772C40.1917 21.2029 39.8663 21.2343 39.6853 21.4574L37.1744 24.5197C37.0839 24.6292 37.0401 24.77 37.0525 24.9115C37.0648 25.0531 37.1324 25.1841 37.2406 25.2762C39.6418 27.2561 42.7843 28.3821 45.9755 28.3821C52.4415 28.3821 55.3857 24.3733 55.3857 20.6835C55.3857 17.4242 53.844 15.2856 50.5362 13.9558L50.5292 13.9505Z" fill="#D6DBDC"/>
</svg>
